G04 EAGLE Gerber RS-274X export*
G75*
%MOMM*%
%FSLAX34Y34*%
%LPD*%
%INSilkscreen Top*%
%IPPOS*%
%AMOC8*
5,1,8,0,0,1.08239X$1,22.5*%
G01*
G04 Define Apertures*
%ADD10C,0.127000*%
%ADD11C,0.200000*%
%ADD12C,0.254000*%
G36*
X246888Y98070D02*
X238998Y98070D01*
X238998Y100679D01*
X239013Y101166D01*
X239060Y101624D01*
X239139Y102054D01*
X239249Y102455D01*
X239390Y102827D01*
X239563Y103171D01*
X239767Y103487D01*
X240003Y103773D01*
X240267Y104028D01*
X240558Y104250D01*
X240876Y104437D01*
X241220Y104590D01*
X241591Y104709D01*
X241988Y104794D01*
X242412Y104845D01*
X242862Y104862D01*
X243162Y104855D01*
X243453Y104833D01*
X243734Y104795D01*
X244006Y104743D01*
X244268Y104676D01*
X244521Y104595D01*
X244764Y104498D01*
X244998Y104386D01*
X245220Y104261D01*
X245429Y104123D01*
X245624Y103973D01*
X245807Y103811D01*
X245975Y103636D01*
X246130Y103449D01*
X246272Y103249D01*
X246401Y103037D01*
X246515Y102814D01*
X246614Y102583D01*
X246698Y102344D01*
X246766Y102096D01*
X246820Y101840D01*
X246858Y101575D01*
X246880Y101302D01*
X246888Y101021D01*
X246888Y98070D01*
G37*
%LPC*%
G36*
X246031Y99139D02*
X246031Y100898D01*
X246007Y101318D01*
X245936Y101713D01*
X245817Y102081D01*
X245650Y102424D01*
X245439Y102733D01*
X245186Y103005D01*
X244890Y103239D01*
X244553Y103434D01*
X244178Y103589D01*
X243772Y103699D01*
X243333Y103765D01*
X242862Y103787D01*
X242506Y103775D01*
X242172Y103737D01*
X241859Y103674D01*
X241569Y103586D01*
X241300Y103473D01*
X241053Y103335D01*
X240828Y103172D01*
X240624Y102984D01*
X240444Y102771D01*
X240288Y102537D01*
X240155Y102280D01*
X240047Y102000D01*
X239963Y101698D01*
X239903Y101373D01*
X239866Y101026D01*
X239854Y100657D01*
X239854Y99139D01*
X246031Y99139D01*
G37*
%LPD*%
G36*
X246888Y78945D02*
X238998Y78945D01*
X238998Y82657D01*
X239007Y82981D01*
X239035Y83286D01*
X239082Y83571D01*
X239147Y83838D01*
X239231Y84086D01*
X239333Y84315D01*
X239454Y84525D01*
X239594Y84715D01*
X239750Y84885D01*
X239921Y85033D01*
X240107Y85157D01*
X240307Y85259D01*
X240522Y85339D01*
X240752Y85395D01*
X240996Y85429D01*
X241254Y85441D01*
X241470Y85433D01*
X241677Y85408D01*
X241874Y85368D01*
X242064Y85312D01*
X242244Y85240D01*
X242416Y85152D01*
X242579Y85048D01*
X242733Y84928D01*
X242876Y84794D01*
X243005Y84648D01*
X243120Y84489D01*
X243162Y84418D01*
X243221Y84318D01*
X243309Y84136D01*
X243383Y83941D01*
X243443Y83733D01*
X243489Y83514D01*
X244936Y84468D01*
X246888Y85754D01*
X246888Y84522D01*
X243612Y82473D01*
X243612Y80014D01*
X246888Y80014D01*
X246888Y78945D01*
G37*
%LPC*%
G36*
X242766Y80014D02*
X242766Y82596D01*
X242760Y82801D01*
X242742Y82995D01*
X242711Y83176D01*
X242668Y83345D01*
X242612Y83503D01*
X242544Y83648D01*
X242464Y83782D01*
X242372Y83903D01*
X242268Y84012D01*
X242154Y84105D01*
X242031Y84185D01*
X241898Y84250D01*
X241755Y84300D01*
X241601Y84336D01*
X241439Y84358D01*
X241266Y84365D01*
X241099Y84358D01*
X240942Y84336D01*
X240795Y84300D01*
X240659Y84248D01*
X240533Y84183D01*
X240417Y84102D01*
X240311Y84007D01*
X240216Y83898D01*
X240131Y83774D01*
X240058Y83638D01*
X239945Y83327D01*
X239877Y82965D01*
X239854Y82551D01*
X239854Y80014D01*
X242766Y80014D01*
G37*
%LPD*%
G36*
X246888Y90413D02*
X238998Y90413D01*
X238998Y93734D01*
X239007Y94057D01*
X239037Y94360D01*
X239085Y94645D01*
X239153Y94911D01*
X239240Y95159D01*
X239347Y95388D01*
X239474Y95598D01*
X239619Y95789D01*
X239783Y95960D01*
X239962Y96108D01*
X240157Y96233D01*
X240368Y96335D01*
X240595Y96415D01*
X240838Y96472D01*
X241097Y96506D01*
X241372Y96517D01*
X241645Y96506D01*
X241903Y96472D01*
X242147Y96415D01*
X242377Y96335D01*
X242593Y96232D01*
X242794Y96106D01*
X242980Y95958D01*
X243153Y95786D01*
X243308Y95596D01*
X243442Y95388D01*
X243556Y95165D01*
X243648Y94925D01*
X243721Y94668D01*
X243772Y94396D01*
X243803Y94107D01*
X243814Y93801D01*
X243814Y91483D01*
X246888Y91483D01*
X246888Y90413D01*
G37*
%LPC*%
G36*
X242968Y91483D02*
X242968Y93650D01*
X242962Y93867D01*
X242943Y94070D01*
X242912Y94259D01*
X242869Y94434D01*
X242813Y94595D01*
X242745Y94742D01*
X242665Y94875D01*
X242572Y94994D01*
X242467Y95099D01*
X242349Y95190D01*
X242219Y95267D01*
X242077Y95330D01*
X241922Y95379D01*
X241755Y95414D01*
X241575Y95435D01*
X241383Y95442D01*
X241198Y95435D01*
X241025Y95413D01*
X240864Y95377D01*
X240714Y95327D01*
X240577Y95263D01*
X240452Y95184D01*
X240338Y95091D01*
X240237Y94983D01*
X240147Y94861D01*
X240069Y94725D01*
X240004Y94574D01*
X239950Y94409D01*
X239908Y94230D01*
X239878Y94036D01*
X239860Y93828D01*
X239854Y93605D01*
X239854Y91483D01*
X242968Y91483D01*
G37*
%LPD*%
G36*
X246888Y75875D02*
X238998Y75875D01*
X238998Y76944D01*
X246888Y76944D01*
X246888Y75875D01*
G37*
G36*
X24953Y70350D02*
X22741Y70350D01*
X22741Y76262D01*
X24697Y76262D01*
X25061Y76251D01*
X25405Y76215D01*
X25727Y76156D01*
X26027Y76074D01*
X26306Y75968D01*
X26564Y75839D01*
X26800Y75686D01*
X27015Y75509D01*
X27206Y75311D01*
X27372Y75093D01*
X27512Y74855D01*
X27627Y74597D01*
X27716Y74319D01*
X27780Y74022D01*
X27818Y73704D01*
X27831Y73367D01*
X27809Y72924D01*
X27742Y72509D01*
X27631Y72124D01*
X27474Y71766D01*
X27278Y71443D01*
X27043Y71160D01*
X26772Y70918D01*
X26463Y70715D01*
X26123Y70555D01*
X25758Y70441D01*
X25368Y70373D01*
X24953Y70350D01*
G37*
%LPC*%
G36*
X24860Y70992D02*
X25176Y71010D01*
X25471Y71063D01*
X25747Y71153D01*
X26004Y71277D01*
X26236Y71436D01*
X26440Y71626D01*
X26615Y71847D01*
X26761Y72100D01*
X26877Y72380D01*
X26959Y72685D01*
X27009Y73014D01*
X27025Y73367D01*
X27016Y73634D01*
X26988Y73884D01*
X26941Y74118D01*
X26875Y74336D01*
X26790Y74537D01*
X26687Y74722D01*
X26564Y74891D01*
X26423Y75043D01*
X26264Y75179D01*
X26089Y75296D01*
X25896Y75395D01*
X25686Y75476D01*
X25460Y75539D01*
X25217Y75584D01*
X24957Y75611D01*
X24680Y75620D01*
X23543Y75620D01*
X23543Y70992D01*
X24860Y70992D01*
G37*
%LPD*%
G36*
X17236Y70350D02*
X16522Y70350D01*
X16522Y76262D01*
X17454Y76262D01*
X20651Y71193D01*
X20614Y71903D01*
X20601Y72385D01*
X20601Y76262D01*
X21323Y76262D01*
X21323Y70350D01*
X20358Y70350D01*
X17194Y75385D01*
X17215Y74978D01*
X17236Y74278D01*
X17236Y70350D01*
G37*
G36*
X12541Y70266D02*
X12094Y70289D01*
X11678Y70358D01*
X11294Y70474D01*
X10943Y70635D01*
X10627Y70840D01*
X10351Y71086D01*
X10114Y71372D01*
X9917Y71699D01*
X9762Y72062D01*
X9651Y72455D01*
X9584Y72879D01*
X9562Y73333D01*
X9574Y73683D01*
X9610Y74012D01*
X9671Y74321D01*
X9755Y74610D01*
X9864Y74879D01*
X9997Y75127D01*
X10153Y75354D01*
X10334Y75562D01*
X10537Y75747D01*
X10759Y75907D01*
X11001Y76042D01*
X11263Y76153D01*
X11544Y76240D01*
X11844Y76301D01*
X12164Y76338D01*
X12504Y76351D01*
X12972Y76330D01*
X13393Y76268D01*
X13769Y76164D01*
X14098Y76019D01*
X14387Y75828D01*
X14641Y75588D01*
X14859Y75298D01*
X15042Y74957D01*
X14279Y74731D01*
X14141Y74966D01*
X13979Y75166D01*
X13794Y75333D01*
X13584Y75465D01*
X13349Y75566D01*
X13088Y75638D01*
X12799Y75681D01*
X12483Y75696D01*
X12234Y75686D01*
X12001Y75657D01*
X11783Y75609D01*
X11580Y75541D01*
X11391Y75454D01*
X11218Y75348D01*
X11060Y75222D01*
X10918Y75077D01*
X10791Y74914D01*
X10681Y74736D01*
X10588Y74542D01*
X10512Y74332D01*
X10452Y74106D01*
X10410Y73864D01*
X10385Y73607D01*
X10376Y73333D01*
X10385Y73061D01*
X10412Y72803D01*
X10457Y72560D01*
X10520Y72331D01*
X10601Y72117D01*
X10700Y71918D01*
X10816Y71734D01*
X10951Y71565D01*
X11102Y71413D01*
X11266Y71281D01*
X11444Y71170D01*
X11636Y71079D01*
X11842Y71008D01*
X12061Y70957D01*
X12294Y70927D01*
X12541Y70916D01*
X12826Y70927D01*
X13101Y70961D01*
X13366Y71016D01*
X13622Y71093D01*
X13861Y71189D01*
X14076Y71300D01*
X14267Y71428D01*
X14434Y71571D01*
X14434Y72637D01*
X12667Y72637D01*
X12667Y73308D01*
X15172Y73308D01*
X15172Y71269D01*
X14924Y71043D01*
X14650Y70845D01*
X14348Y70673D01*
X14021Y70528D01*
X13672Y70414D01*
X13310Y70332D01*
X12933Y70282D01*
X12541Y70266D01*
G37*
G36*
X258572Y83033D02*
X254638Y83033D01*
X254638Y84334D01*
X254645Y84577D01*
X254669Y84805D01*
X254708Y85020D01*
X254763Y85220D01*
X254833Y85405D01*
X254920Y85577D01*
X255021Y85734D01*
X255139Y85877D01*
X255271Y86004D01*
X255416Y86114D01*
X255574Y86208D01*
X255746Y86284D01*
X255931Y86344D01*
X256129Y86386D01*
X256340Y86412D01*
X256564Y86420D01*
X256859Y86405D01*
X257135Y86361D01*
X257392Y86286D01*
X257630Y86183D01*
X257845Y86052D01*
X258033Y85896D01*
X258194Y85715D01*
X258329Y85510D01*
X258435Y85284D01*
X258511Y85041D01*
X258557Y84781D01*
X258572Y84504D01*
X258572Y83033D01*
G37*
%LPC*%
G36*
X258145Y83566D02*
X258145Y84443D01*
X258133Y84653D01*
X258097Y84850D01*
X258038Y85033D01*
X257955Y85204D01*
X257850Y85358D01*
X257723Y85494D01*
X257576Y85610D01*
X257408Y85708D01*
X257221Y85785D01*
X257018Y85840D01*
X256799Y85873D01*
X256564Y85884D01*
X256387Y85878D01*
X256220Y85859D01*
X256065Y85828D01*
X255920Y85784D01*
X255786Y85727D01*
X255662Y85658D01*
X255550Y85577D01*
X255449Y85483D01*
X255281Y85260D01*
X255215Y85132D01*
X255161Y84993D01*
X255119Y84842D01*
X255089Y84680D01*
X255071Y84507D01*
X255065Y84323D01*
X255065Y83566D01*
X258145Y83566D01*
G37*
%LPD*%
G36*
X258572Y70314D02*
X254638Y70314D01*
X254638Y72165D01*
X254656Y72479D01*
X254712Y72754D01*
X254805Y72992D01*
X254935Y73192D01*
X255098Y73350D01*
X255291Y73463D01*
X255512Y73531D01*
X255763Y73553D01*
X255973Y73537D01*
X256166Y73489D01*
X256342Y73410D01*
X256500Y73298D01*
X256636Y73158D01*
X256711Y73043D01*
X256744Y72994D01*
X256824Y72805D01*
X256877Y72593D01*
X257599Y73068D01*
X258572Y73710D01*
X258572Y73095D01*
X256939Y72073D01*
X256939Y70847D01*
X258572Y70847D01*
X258572Y70314D01*
G37*
%LPC*%
G36*
X256517Y70847D02*
X256517Y72135D01*
X256505Y72334D01*
X256468Y72509D01*
X256406Y72660D01*
X256320Y72787D01*
X256212Y72888D01*
X256084Y72960D01*
X255936Y73003D01*
X255769Y73017D01*
X255607Y73003D01*
X255466Y72959D01*
X255345Y72886D01*
X255245Y72784D01*
X255166Y72655D01*
X255110Y72499D01*
X255076Y72319D01*
X255065Y72112D01*
X255065Y70847D01*
X256517Y70847D01*
G37*
%LPD*%
G36*
X258572Y79220D02*
X254638Y79220D01*
X254638Y82205D01*
X255073Y82205D01*
X255073Y79754D01*
X256335Y79754D01*
X256335Y82038D01*
X256765Y82038D01*
X256765Y79754D01*
X258136Y79754D01*
X258136Y82320D01*
X258572Y82320D01*
X258572Y79220D01*
G37*
G36*
X258572Y76033D02*
X254638Y76033D01*
X254638Y76566D01*
X258136Y76566D01*
X258136Y78554D01*
X258572Y78554D01*
X258572Y76033D01*
G37*
G36*
X258572Y68779D02*
X254638Y68779D01*
X254638Y69312D01*
X258572Y69312D01*
X258572Y68779D01*
G37*
G36*
X122513Y118788D02*
X122272Y118798D01*
X122047Y118826D01*
X121836Y118873D01*
X121641Y118940D01*
X121460Y119025D01*
X121295Y119129D01*
X121146Y119252D01*
X121011Y119394D01*
X120892Y119554D01*
X120789Y119731D01*
X120702Y119925D01*
X120630Y120136D01*
X120575Y120363D01*
X120535Y120607D01*
X120511Y120868D01*
X120503Y121146D01*
X120511Y121431D01*
X120535Y121697D01*
X120575Y121945D01*
X120631Y122174D01*
X120702Y122386D01*
X120790Y122578D01*
X120893Y122753D01*
X121012Y122909D01*
X121147Y123046D01*
X121298Y123166D01*
X121465Y123267D01*
X121648Y123349D01*
X121847Y123414D01*
X122062Y123459D01*
X122292Y123487D01*
X122539Y123496D01*
X122790Y123487D01*
X123024Y123460D01*
X123242Y123416D01*
X123442Y123353D01*
X123625Y123272D01*
X123790Y123174D01*
X123939Y123058D01*
X124070Y122923D01*
X124185Y122770D01*
X124285Y122598D01*
X124369Y122405D01*
X124438Y122193D01*
X124492Y121961D01*
X124530Y121709D01*
X124553Y121438D01*
X124561Y121146D01*
X124553Y120858D01*
X124528Y120588D01*
X124487Y120338D01*
X124430Y120107D01*
X124356Y119894D01*
X124266Y119701D01*
X124159Y119527D01*
X124037Y119371D01*
X123898Y119235D01*
X123745Y119116D01*
X123576Y119016D01*
X123393Y118934D01*
X123196Y118870D01*
X122983Y118825D01*
X122756Y118797D01*
X122513Y118788D01*
G37*
%LPC*%
G36*
X122505Y119346D02*
X122669Y119353D01*
X122821Y119373D01*
X122960Y119408D01*
X123088Y119455D01*
X123203Y119517D01*
X123306Y119592D01*
X123397Y119680D01*
X123476Y119783D01*
X123604Y120031D01*
X123695Y120342D01*
X123750Y120713D01*
X123768Y121146D01*
X123751Y121584D01*
X123698Y121958D01*
X123611Y122267D01*
X123489Y122512D01*
X123413Y122612D01*
X123326Y122699D01*
X123226Y122772D01*
X123115Y122832D01*
X122992Y122878D01*
X122857Y122911D01*
X122710Y122931D01*
X122551Y122938D01*
X122391Y122931D01*
X122243Y122911D01*
X122105Y122877D01*
X121980Y122830D01*
X121866Y122768D01*
X121763Y122694D01*
X121672Y122606D01*
X121592Y122504D01*
X121463Y122256D01*
X121370Y121947D01*
X121315Y121577D01*
X121296Y121146D01*
X121315Y120725D01*
X121369Y120360D01*
X121460Y120051D01*
X121588Y119797D01*
X121666Y119692D01*
X121755Y119600D01*
X121854Y119522D01*
X121963Y119459D01*
X122083Y119410D01*
X122213Y119374D01*
X122354Y119353D01*
X122505Y119346D01*
G37*
%LPD*%
G36*
X99411Y118788D02*
X99090Y118811D01*
X98812Y118878D01*
X98576Y118991D01*
X98383Y119149D01*
X98232Y119346D01*
X98125Y119577D01*
X98060Y119841D01*
X98039Y120139D01*
X98046Y120310D01*
X98068Y120471D01*
X98104Y120622D01*
X98155Y120762D01*
X98220Y120893D01*
X98300Y121013D01*
X98394Y121122D01*
X98502Y121222D01*
X98627Y121311D01*
X98770Y121389D01*
X98930Y121456D01*
X99108Y121511D01*
X99304Y121556D01*
X99518Y121590D01*
X99998Y121625D01*
X101018Y121641D01*
X101018Y121889D01*
X101003Y122146D01*
X100959Y122364D01*
X100886Y122543D01*
X100783Y122682D01*
X100649Y122787D01*
X100481Y122862D01*
X100280Y122906D01*
X100045Y122921D01*
X99808Y122911D01*
X99606Y122878D01*
X99439Y122825D01*
X99306Y122749D01*
X99202Y122650D01*
X99121Y122526D01*
X99064Y122376D01*
X99029Y122200D01*
X98240Y122271D01*
X98311Y122558D01*
X98426Y122807D01*
X98587Y123018D01*
X98792Y123190D01*
X99042Y123324D01*
X99337Y123420D01*
X99677Y123477D01*
X100061Y123496D01*
X100269Y123490D01*
X100463Y123472D01*
X100644Y123441D01*
X100811Y123398D01*
X100966Y123343D01*
X101107Y123275D01*
X101235Y123196D01*
X101350Y123104D01*
X101451Y123000D01*
X101539Y122886D01*
X101613Y122760D01*
X101674Y122624D01*
X101721Y122477D01*
X101755Y122318D01*
X101775Y122149D01*
X101782Y121969D01*
X101782Y120013D01*
X101804Y119719D01*
X101831Y119603D01*
X101870Y119508D01*
X101924Y119433D01*
X101998Y119380D01*
X102092Y119348D01*
X102206Y119338D01*
X102453Y119367D01*
X102453Y118897D01*
X102165Y118847D01*
X101870Y118830D01*
X101674Y118844D01*
X101507Y118885D01*
X101369Y118954D01*
X101259Y119050D01*
X101174Y119176D01*
X101110Y119333D01*
X101066Y119521D01*
X101043Y119741D01*
X101018Y119741D01*
X100867Y119499D01*
X100705Y119296D01*
X100531Y119131D01*
X100345Y119004D01*
X100142Y118910D01*
X99919Y118842D01*
X99675Y118802D01*
X99411Y118788D01*
G37*
%LPC*%
G36*
X99583Y119355D02*
X99785Y119366D01*
X99975Y119402D01*
X100154Y119461D01*
X100322Y119543D01*
X100475Y119647D01*
X100611Y119767D01*
X100729Y119906D01*
X100831Y120062D01*
X100913Y120227D01*
X100971Y120396D01*
X101006Y120566D01*
X101018Y120739D01*
X101018Y121113D01*
X100191Y121096D01*
X99941Y121086D01*
X99723Y121064D01*
X99537Y121031D01*
X99384Y120987D01*
X99254Y120930D01*
X99141Y120859D01*
X99043Y120774D01*
X98962Y120676D01*
X98898Y120563D01*
X98852Y120434D01*
X98824Y120288D01*
X98815Y120127D01*
X98828Y119953D01*
X98865Y119799D01*
X98927Y119667D01*
X99014Y119556D01*
X99125Y119468D01*
X99256Y119405D01*
X99409Y119367D01*
X99583Y119355D01*
G37*
%LPD*%
G36*
X103806Y118872D02*
X103051Y118872D01*
X103051Y122443D01*
X103045Y123082D01*
X103026Y123412D01*
X103739Y123412D01*
X103747Y123299D01*
X103758Y123087D01*
X103773Y122636D01*
X103785Y122636D01*
X103920Y122854D01*
X104066Y123037D01*
X104221Y123186D01*
X104387Y123301D01*
X104569Y123386D01*
X104771Y123447D01*
X104994Y123484D01*
X105237Y123496D01*
X105585Y123473D01*
X105741Y123444D01*
X105884Y123403D01*
X106014Y123351D01*
X106132Y123287D01*
X106237Y123212D01*
X106330Y123125D01*
X106411Y123024D01*
X106482Y122909D01*
X106541Y122778D01*
X106590Y122632D01*
X106655Y122295D01*
X106676Y121897D01*
X106676Y118872D01*
X105917Y118872D01*
X105917Y121751D01*
X105911Y121962D01*
X105895Y122149D01*
X105867Y122311D01*
X105829Y122447D01*
X105778Y122562D01*
X105714Y122660D01*
X105638Y122741D01*
X105548Y122804D01*
X105440Y122852D01*
X105309Y122886D01*
X105157Y122906D01*
X104981Y122913D01*
X104723Y122890D01*
X104493Y122820D01*
X104293Y122703D01*
X104121Y122539D01*
X103983Y122335D01*
X103885Y122094D01*
X103826Y121816D01*
X103806Y121503D01*
X103806Y118872D01*
G37*
G36*
X109380Y118788D02*
X108981Y118806D01*
X108630Y118858D01*
X108327Y118945D01*
X108073Y119067D01*
X107864Y119226D01*
X107694Y119424D01*
X107565Y119662D01*
X107475Y119938D01*
X108143Y120068D01*
X108204Y119898D01*
X108291Y119752D01*
X108403Y119630D01*
X108541Y119533D01*
X108707Y119459D01*
X108902Y119405D01*
X109127Y119374D01*
X109380Y119363D01*
X109649Y119374D01*
X109878Y119407D01*
X110069Y119462D01*
X110222Y119539D01*
X110338Y119638D01*
X110422Y119759D01*
X110472Y119903D01*
X110488Y120068D01*
X110477Y120196D01*
X110442Y120311D01*
X110384Y120414D01*
X110304Y120504D01*
X110197Y120585D01*
X110062Y120657D01*
X109899Y120723D01*
X109708Y120781D01*
X109166Y120924D01*
X108610Y121090D01*
X108402Y121172D01*
X108241Y121253D01*
X107996Y121432D01*
X107896Y121535D01*
X107811Y121646D01*
X107743Y121768D01*
X107695Y121903D01*
X107666Y122051D01*
X107656Y122212D01*
X107663Y122363D01*
X107684Y122504D01*
X107718Y122636D01*
X107767Y122759D01*
X107829Y122873D01*
X107905Y122977D01*
X108099Y123158D01*
X108345Y123301D01*
X108642Y123402D01*
X108990Y123463D01*
X109389Y123484D01*
X109745Y123467D01*
X110063Y123417D01*
X110342Y123335D01*
X110583Y123219D01*
X110784Y123067D01*
X110944Y122875D01*
X111064Y122643D01*
X111143Y122372D01*
X110463Y122288D01*
X110418Y122430D01*
X110347Y122555D01*
X110249Y122662D01*
X110125Y122751D01*
X109976Y122822D01*
X109804Y122873D01*
X109608Y122903D01*
X109389Y122913D01*
X109150Y122903D01*
X108944Y122874D01*
X108772Y122826D01*
X108634Y122758D01*
X108527Y122670D01*
X108451Y122563D01*
X108405Y122435D01*
X108390Y122288D01*
X108396Y122195D01*
X108415Y122111D01*
X108491Y121969D01*
X108616Y121852D01*
X108789Y121755D01*
X109095Y121650D01*
X109620Y121511D01*
X110136Y121366D01*
X110484Y121232D01*
X110721Y121098D01*
X110902Y120949D01*
X111037Y120782D01*
X111139Y120590D01*
X111202Y120373D01*
X111223Y120127D01*
X111215Y119971D01*
X111192Y119824D01*
X111154Y119686D01*
X111101Y119558D01*
X111033Y119439D01*
X110950Y119329D01*
X110852Y119228D01*
X110738Y119136D01*
X110471Y118984D01*
X110156Y118875D01*
X109793Y118810D01*
X109380Y118788D01*
G37*
G36*
X115599Y118788D02*
X115200Y118806D01*
X114849Y118858D01*
X114546Y118945D01*
X114292Y119067D01*
X114082Y119226D01*
X113913Y119424D01*
X113783Y119662D01*
X113694Y119938D01*
X114361Y120068D01*
X114422Y119898D01*
X114509Y119752D01*
X114622Y119630D01*
X114760Y119533D01*
X114926Y119459D01*
X115121Y119405D01*
X115345Y119374D01*
X115599Y119363D01*
X115867Y119374D01*
X116097Y119407D01*
X116288Y119462D01*
X116441Y119539D01*
X116557Y119638D01*
X116640Y119759D01*
X116690Y119903D01*
X116707Y120068D01*
X116695Y120196D01*
X116661Y120311D01*
X116603Y120414D01*
X116522Y120504D01*
X116416Y120585D01*
X116281Y120657D01*
X116118Y120723D01*
X115927Y120781D01*
X115385Y120924D01*
X114829Y121090D01*
X114621Y121172D01*
X114460Y121253D01*
X114215Y121432D01*
X114115Y121535D01*
X114030Y121646D01*
X113962Y121768D01*
X113913Y121903D01*
X113884Y122051D01*
X113875Y122212D01*
X113882Y122363D01*
X113902Y122504D01*
X113937Y122636D01*
X113985Y122759D01*
X114048Y122873D01*
X114124Y122977D01*
X114317Y123158D01*
X114564Y123301D01*
X114861Y123402D01*
X115209Y123463D01*
X115608Y123484D01*
X115964Y123467D01*
X116282Y123417D01*
X116561Y123335D01*
X116801Y123219D01*
X117002Y123067D01*
X117163Y122875D01*
X117283Y122643D01*
X117362Y122372D01*
X116682Y122288D01*
X116637Y122430D01*
X116566Y122555D01*
X116468Y122662D01*
X116344Y122751D01*
X116195Y122822D01*
X116023Y122873D01*
X115827Y122903D01*
X115608Y122913D01*
X115368Y122903D01*
X115163Y122874D01*
X114991Y122826D01*
X114852Y122758D01*
X114746Y122670D01*
X114670Y122563D01*
X114624Y122435D01*
X114609Y122288D01*
X114615Y122195D01*
X114634Y122111D01*
X114710Y121969D01*
X114834Y121852D01*
X115008Y121755D01*
X115314Y121650D01*
X115838Y121511D01*
X116355Y121366D01*
X116703Y121232D01*
X116939Y121098D01*
X117120Y120949D01*
X117256Y120782D01*
X117357Y120590D01*
X117420Y120373D01*
X117441Y120127D01*
X117434Y119971D01*
X117411Y119824D01*
X117373Y119686D01*
X117320Y119558D01*
X117252Y119439D01*
X117169Y119329D01*
X117070Y119228D01*
X116957Y119136D01*
X116690Y118984D01*
X116375Y118875D01*
X116011Y118810D01*
X115599Y118788D01*
G37*
G36*
X92882Y118872D02*
X92085Y118872D01*
X92085Y124130D01*
X90054Y124130D01*
X90054Y124784D01*
X94913Y124784D01*
X94913Y124130D01*
X92882Y124130D01*
X92882Y118872D01*
G37*
G36*
X119328Y118805D02*
X119116Y118821D01*
X118932Y118869D01*
X118776Y118949D01*
X118649Y119062D01*
X118550Y119206D01*
X118479Y119383D01*
X118436Y119592D01*
X118422Y119833D01*
X118422Y122863D01*
X117898Y122863D01*
X117898Y123412D01*
X118451Y123412D01*
X118674Y124428D01*
X119177Y124428D01*
X119177Y123412D01*
X120017Y123412D01*
X120017Y122863D01*
X119177Y122863D01*
X119177Y119997D01*
X119184Y119845D01*
X119204Y119718D01*
X119238Y119615D01*
X119284Y119537D01*
X119348Y119479D01*
X119431Y119438D01*
X119533Y119413D01*
X119656Y119405D01*
X119840Y119420D01*
X120092Y119464D01*
X120092Y118906D01*
X119715Y118830D01*
X119523Y118811D01*
X119328Y118805D01*
G37*
G36*
X96150Y118872D02*
X95395Y118872D01*
X95395Y122355D01*
X95369Y123412D01*
X96083Y123412D01*
X96116Y122485D01*
X96133Y122485D01*
X96227Y122753D01*
X96327Y122976D01*
X96434Y123152D01*
X96549Y123282D01*
X96678Y123376D01*
X96832Y123443D01*
X97010Y123483D01*
X97212Y123496D01*
X97364Y123486D01*
X97518Y123454D01*
X97518Y122762D01*
X97342Y122793D01*
X97115Y122804D01*
X97001Y122797D01*
X96894Y122779D01*
X96701Y122703D01*
X96535Y122576D01*
X96397Y122399D01*
X96289Y122175D01*
X96212Y121906D01*
X96165Y121594D01*
X96150Y121239D01*
X96150Y118872D01*
G37*
G36*
X126275Y118872D02*
X125520Y118872D01*
X125520Y122355D01*
X125494Y123412D01*
X126208Y123412D01*
X126241Y122485D01*
X126258Y122485D01*
X126352Y122753D01*
X126452Y122976D01*
X126559Y123152D01*
X126674Y123282D01*
X126803Y123376D01*
X126957Y123443D01*
X127135Y123483D01*
X127337Y123496D01*
X127489Y123486D01*
X127643Y123454D01*
X127643Y122762D01*
X127467Y122793D01*
X127240Y122804D01*
X127126Y122797D01*
X127019Y122779D01*
X126826Y122703D01*
X126660Y122576D01*
X126522Y122399D01*
X126414Y122175D01*
X126337Y121906D01*
X126290Y121594D01*
X126275Y121239D01*
X126275Y118872D01*
G37*
G36*
X112879Y118872D02*
X112124Y118872D01*
X112124Y123412D01*
X112879Y123412D01*
X112879Y118872D01*
G37*
G36*
X112879Y124377D02*
X112124Y124377D01*
X112124Y125099D01*
X112879Y125099D01*
X112879Y124377D01*
G37*
G36*
X23984Y35160D02*
X21772Y35160D01*
X21772Y41072D01*
X23728Y41072D01*
X24093Y41061D01*
X24436Y41025D01*
X24758Y40966D01*
X25059Y40884D01*
X25338Y40778D01*
X25595Y40649D01*
X25831Y40496D01*
X26046Y40319D01*
X26238Y40121D01*
X26403Y39903D01*
X26544Y39665D01*
X26658Y39407D01*
X26748Y39129D01*
X26811Y38832D01*
X26850Y38514D01*
X26862Y38177D01*
X26840Y37734D01*
X26773Y37319D01*
X26662Y36934D01*
X26506Y36576D01*
X26309Y36253D01*
X26075Y35970D01*
X25803Y35728D01*
X25494Y35525D01*
X25155Y35365D01*
X24790Y35251D01*
X24399Y35183D01*
X23984Y35160D01*
G37*
%LPC*%
G36*
X23892Y35802D02*
X24207Y35820D01*
X24503Y35873D01*
X24779Y35963D01*
X25035Y36087D01*
X25267Y36246D01*
X25471Y36436D01*
X25646Y36657D01*
X25792Y36910D01*
X25908Y37190D01*
X25991Y37495D01*
X26040Y37824D01*
X26057Y38177D01*
X26047Y38444D01*
X26019Y38694D01*
X25972Y38928D01*
X25906Y39146D01*
X25822Y39347D01*
X25718Y39532D01*
X25596Y39701D01*
X25455Y39853D01*
X25296Y39989D01*
X25120Y40106D01*
X24927Y40205D01*
X24718Y40286D01*
X24491Y40349D01*
X24248Y40394D01*
X23988Y40421D01*
X23711Y40430D01*
X22574Y40430D01*
X22574Y35802D01*
X23892Y35802D01*
G37*
%LPD*%
G36*
X45484Y35160D02*
X43272Y35160D01*
X43272Y41072D01*
X45228Y41072D01*
X45593Y41061D01*
X45936Y41025D01*
X46258Y40966D01*
X46559Y40884D01*
X46838Y40778D01*
X47095Y40649D01*
X47331Y40496D01*
X47546Y40319D01*
X47738Y40121D01*
X47903Y39903D01*
X48044Y39665D01*
X48158Y39407D01*
X48248Y39129D01*
X48311Y38832D01*
X48350Y38514D01*
X48362Y38177D01*
X48340Y37734D01*
X48273Y37319D01*
X48162Y36934D01*
X48006Y36576D01*
X47809Y36253D01*
X47575Y35970D01*
X47303Y35728D01*
X46994Y35525D01*
X46655Y35365D01*
X46290Y35251D01*
X45899Y35183D01*
X45484Y35160D01*
G37*
%LPC*%
G36*
X45392Y35802D02*
X45707Y35820D01*
X46003Y35873D01*
X46279Y35963D01*
X46535Y36087D01*
X46767Y36246D01*
X46971Y36436D01*
X47146Y36657D01*
X47292Y36910D01*
X47408Y37190D01*
X47491Y37495D01*
X47540Y37824D01*
X47557Y38177D01*
X47547Y38444D01*
X47519Y38694D01*
X47472Y38928D01*
X47406Y39146D01*
X47322Y39347D01*
X47218Y39532D01*
X47096Y39701D01*
X46955Y39853D01*
X46796Y39989D01*
X46620Y40106D01*
X46427Y40205D01*
X46218Y40286D01*
X45991Y40349D01*
X45748Y40394D01*
X45488Y40421D01*
X45211Y40430D01*
X44074Y40430D01*
X44074Y35802D01*
X45392Y35802D01*
G37*
%LPD*%
G36*
X10636Y35160D02*
X9835Y35160D01*
X9835Y41072D01*
X12617Y41072D01*
X12860Y41065D01*
X13088Y41044D01*
X13302Y41010D01*
X13502Y40961D01*
X13688Y40898D01*
X13859Y40821D01*
X14016Y40730D01*
X14159Y40626D01*
X14286Y40508D01*
X14397Y40380D01*
X14490Y40241D01*
X14567Y40091D01*
X14626Y39930D01*
X14669Y39758D01*
X14694Y39575D01*
X14703Y39381D01*
X14679Y39065D01*
X14607Y38775D01*
X14487Y38511D01*
X14319Y38274D01*
X14108Y38070D01*
X13936Y37957D01*
X13862Y37907D01*
X13579Y37787D01*
X13259Y37707D01*
X13974Y36623D01*
X14937Y35160D01*
X14014Y35160D01*
X12479Y37615D01*
X10636Y37615D01*
X10636Y35160D01*
G37*
%LPC*%
G36*
X12571Y38248D02*
X12870Y38267D01*
X13133Y38322D01*
X13360Y38415D01*
X13551Y38544D01*
X13702Y38707D01*
X13810Y38899D01*
X13875Y39121D01*
X13897Y39373D01*
X13875Y39616D01*
X13809Y39828D01*
X13700Y40009D01*
X13546Y40160D01*
X13352Y40278D01*
X13119Y40363D01*
X12847Y40413D01*
X12537Y40430D01*
X10636Y40430D01*
X10636Y38248D01*
X12571Y38248D01*
G37*
%LPD*%
G36*
X20711Y35160D02*
X16054Y35160D01*
X16054Y41072D01*
X20539Y41072D01*
X20539Y40418D01*
X16855Y40418D01*
X16855Y38521D01*
X20288Y38521D01*
X20288Y37875D01*
X16855Y37875D01*
X16855Y35815D01*
X20711Y35815D01*
X20711Y35160D01*
G37*
G36*
X42211Y35160D02*
X37554Y35160D01*
X37554Y41072D01*
X42039Y41072D01*
X42039Y40418D01*
X38355Y40418D01*
X38355Y38521D01*
X41788Y38521D01*
X41788Y37875D01*
X38355Y37875D01*
X38355Y35815D01*
X42211Y35815D01*
X42211Y35160D01*
G37*
G36*
X36562Y35160D02*
X32772Y35160D01*
X32772Y41072D01*
X33574Y41072D01*
X33574Y35815D01*
X36562Y35815D01*
X36562Y35160D01*
G37*
G36*
X32162Y33452D02*
X27156Y33452D01*
X27156Y33998D01*
X32162Y33998D01*
X32162Y33452D01*
G37*
G36*
X23984Y140730D02*
X21772Y140730D01*
X21772Y146642D01*
X23728Y146642D01*
X24093Y146631D01*
X24436Y146595D01*
X24758Y146536D01*
X25059Y146454D01*
X25338Y146348D01*
X25595Y146219D01*
X25831Y146066D01*
X26046Y145889D01*
X26238Y145691D01*
X26403Y145473D01*
X26544Y145235D01*
X26658Y144977D01*
X26748Y144699D01*
X26811Y144402D01*
X26850Y144084D01*
X26862Y143747D01*
X26840Y143304D01*
X26773Y142889D01*
X26662Y142504D01*
X26506Y142146D01*
X26309Y141823D01*
X26075Y141540D01*
X25803Y141298D01*
X25494Y141095D01*
X25155Y140935D01*
X24790Y140821D01*
X24399Y140753D01*
X23984Y140730D01*
G37*
%LPC*%
G36*
X23892Y141372D02*
X24207Y141390D01*
X24503Y141443D01*
X24779Y141533D01*
X25035Y141657D01*
X25267Y141816D01*
X25471Y142006D01*
X25646Y142227D01*
X25792Y142480D01*
X25908Y142760D01*
X25991Y143065D01*
X26040Y143394D01*
X26057Y143747D01*
X26047Y144014D01*
X26019Y144264D01*
X25972Y144498D01*
X25906Y144716D01*
X25822Y144917D01*
X25718Y145102D01*
X25596Y145271D01*
X25455Y145423D01*
X25296Y145559D01*
X25120Y145676D01*
X24927Y145775D01*
X24718Y145856D01*
X24491Y145919D01*
X24248Y145964D01*
X23988Y145991D01*
X23711Y146000D01*
X22574Y146000D01*
X22574Y141372D01*
X23892Y141372D01*
G37*
%LPD*%
G36*
X40703Y140730D02*
X38491Y140730D01*
X38491Y146642D01*
X40447Y146642D01*
X40811Y146631D01*
X41155Y146595D01*
X41477Y146536D01*
X41777Y146454D01*
X42056Y146348D01*
X42314Y146219D01*
X42550Y146066D01*
X42765Y145889D01*
X42956Y145691D01*
X43122Y145473D01*
X43262Y145235D01*
X43377Y144977D01*
X43466Y144699D01*
X43530Y144402D01*
X43568Y144084D01*
X43581Y143747D01*
X43559Y143304D01*
X43492Y142889D01*
X43381Y142504D01*
X43224Y142146D01*
X43028Y141823D01*
X42793Y141540D01*
X42522Y141298D01*
X42213Y141095D01*
X41873Y140935D01*
X41508Y140821D01*
X41118Y140753D01*
X40703Y140730D01*
G37*
%LPC*%
G36*
X40610Y141372D02*
X40926Y141390D01*
X41221Y141443D01*
X41497Y141533D01*
X41754Y141657D01*
X41986Y141816D01*
X42190Y142006D01*
X42365Y142227D01*
X42511Y142480D01*
X42627Y142760D01*
X42709Y143065D01*
X42759Y143394D01*
X42775Y143747D01*
X42766Y144014D01*
X42738Y144264D01*
X42691Y144498D01*
X42625Y144716D01*
X42540Y144917D01*
X42437Y145102D01*
X42314Y145271D01*
X42173Y145423D01*
X42014Y145559D01*
X41839Y145676D01*
X41646Y145775D01*
X41436Y145856D01*
X41210Y145919D01*
X40967Y145964D01*
X40707Y145991D01*
X40430Y146000D01*
X39293Y146000D01*
X39293Y141372D01*
X40610Y141372D01*
G37*
%LPD*%
G36*
X10636Y140730D02*
X9835Y140730D01*
X9835Y146642D01*
X12617Y146642D01*
X12860Y146635D01*
X13088Y146614D01*
X13302Y146580D01*
X13502Y146531D01*
X13688Y146468D01*
X13859Y146391D01*
X14016Y146300D01*
X14159Y146196D01*
X14286Y146078D01*
X14397Y145950D01*
X14490Y145811D01*
X14567Y145661D01*
X14626Y145500D01*
X14669Y145328D01*
X14694Y145145D01*
X14703Y144951D01*
X14679Y144635D01*
X14607Y144345D01*
X14487Y144081D01*
X14319Y143844D01*
X14108Y143640D01*
X13936Y143527D01*
X13862Y143477D01*
X13579Y143357D01*
X13259Y143277D01*
X13974Y142193D01*
X14937Y140730D01*
X14014Y140730D01*
X12479Y143185D01*
X10636Y143185D01*
X10636Y140730D01*
G37*
%LPC*%
G36*
X12571Y143818D02*
X12870Y143837D01*
X13133Y143892D01*
X13360Y143985D01*
X13551Y144114D01*
X13702Y144277D01*
X13810Y144469D01*
X13875Y144691D01*
X13897Y144943D01*
X13875Y145186D01*
X13809Y145398D01*
X13700Y145579D01*
X13546Y145730D01*
X13352Y145848D01*
X13119Y145933D01*
X12847Y145983D01*
X12537Y146000D01*
X10636Y146000D01*
X10636Y143818D01*
X12571Y143818D01*
G37*
%LPD*%
G36*
X33574Y140730D02*
X32772Y140730D01*
X32772Y146642D01*
X35261Y146642D01*
X35502Y146635D01*
X35730Y146613D01*
X35944Y146577D01*
X36143Y146526D01*
X36329Y146460D01*
X36500Y146380D01*
X36657Y146286D01*
X36801Y146177D01*
X36929Y146054D01*
X37039Y145920D01*
X37133Y145774D01*
X37210Y145615D01*
X37270Y145445D01*
X37312Y145263D01*
X37338Y145069D01*
X37346Y144863D01*
X37338Y144659D01*
X37312Y144465D01*
X37269Y144282D01*
X37209Y144110D01*
X37132Y143949D01*
X37038Y143798D01*
X36927Y143658D01*
X36799Y143529D01*
X36656Y143413D01*
X36500Y143312D01*
X36333Y143227D01*
X36153Y143157D01*
X35961Y143103D01*
X35757Y143065D01*
X35540Y143041D01*
X35311Y143034D01*
X33574Y143034D01*
X33574Y140730D01*
G37*
%LPC*%
G36*
X35198Y143667D02*
X35513Y143686D01*
X35785Y143742D01*
X36016Y143834D01*
X36205Y143964D01*
X36352Y144131D01*
X36457Y144335D01*
X36520Y144577D01*
X36541Y144855D01*
X36519Y145123D01*
X36455Y145356D01*
X36347Y145553D01*
X36197Y145714D01*
X36003Y145839D01*
X35766Y145929D01*
X35487Y145982D01*
X35164Y146000D01*
X33574Y146000D01*
X33574Y143667D01*
X35198Y143667D01*
G37*
%LPD*%
G36*
X20711Y140730D02*
X16054Y140730D01*
X16054Y146642D01*
X20539Y146642D01*
X20539Y145988D01*
X16855Y145988D01*
X16855Y144091D01*
X20288Y144091D01*
X20288Y143445D01*
X16855Y143445D01*
X16855Y141385D01*
X20711Y141385D01*
X20711Y140730D01*
G37*
G36*
X32162Y139022D02*
X27156Y139022D01*
X27156Y139568D01*
X32162Y139568D01*
X32162Y139022D01*
G37*
G36*
X17765Y105540D02*
X15554Y105540D01*
X15554Y111452D01*
X17509Y111452D01*
X17874Y111441D01*
X18217Y111405D01*
X18539Y111346D01*
X18840Y111264D01*
X19119Y111158D01*
X19377Y111029D01*
X19613Y110876D01*
X19828Y110699D01*
X20019Y110501D01*
X20185Y110283D01*
X20325Y110045D01*
X20440Y109787D01*
X20529Y109509D01*
X20593Y109212D01*
X20631Y108894D01*
X20644Y108557D01*
X20621Y108114D01*
X20554Y107699D01*
X20443Y107314D01*
X20287Y106956D01*
X20090Y106633D01*
X19856Y106350D01*
X19584Y106108D01*
X19276Y105905D01*
X18936Y105745D01*
X18571Y105631D01*
X18181Y105563D01*
X17765Y105540D01*
G37*
%LPC*%
G36*
X17673Y106182D02*
X17988Y106200D01*
X18284Y106253D01*
X18560Y106343D01*
X18816Y106467D01*
X19048Y106626D01*
X19252Y106816D01*
X19427Y107037D01*
X19574Y107290D01*
X19689Y107570D01*
X19772Y107875D01*
X19821Y108204D01*
X19838Y108557D01*
X19829Y108824D01*
X19800Y109074D01*
X19753Y109308D01*
X19687Y109526D01*
X19603Y109727D01*
X19499Y109912D01*
X19377Y110081D01*
X19236Y110233D01*
X19077Y110369D01*
X18901Y110486D01*
X18708Y110585D01*
X18499Y110666D01*
X18273Y110729D01*
X18029Y110774D01*
X17769Y110801D01*
X17492Y110810D01*
X16355Y110810D01*
X16355Y106182D01*
X17673Y106182D01*
G37*
%LPD*%
G36*
X23984Y105540D02*
X21772Y105540D01*
X21772Y111452D01*
X23728Y111452D01*
X24093Y111441D01*
X24436Y111405D01*
X24758Y111346D01*
X25059Y111264D01*
X25338Y111158D01*
X25595Y111029D01*
X25831Y110876D01*
X26046Y110699D01*
X26238Y110501D01*
X26403Y110283D01*
X26544Y110045D01*
X26658Y109787D01*
X26748Y109509D01*
X26811Y109212D01*
X26850Y108894D01*
X26862Y108557D01*
X26840Y108114D01*
X26773Y107699D01*
X26662Y107314D01*
X26506Y106956D01*
X26309Y106633D01*
X26075Y106350D01*
X25803Y106108D01*
X25494Y105905D01*
X25155Y105745D01*
X24790Y105631D01*
X24399Y105563D01*
X23984Y105540D01*
G37*
%LPC*%
G36*
X23892Y106182D02*
X24207Y106200D01*
X24503Y106253D01*
X24779Y106343D01*
X25035Y106467D01*
X25267Y106626D01*
X25471Y106816D01*
X25646Y107037D01*
X25792Y107290D01*
X25908Y107570D01*
X25991Y107875D01*
X26040Y108204D01*
X26057Y108557D01*
X26047Y108824D01*
X26019Y109074D01*
X25972Y109308D01*
X25906Y109526D01*
X25822Y109727D01*
X25718Y109912D01*
X25596Y110081D01*
X25455Y110233D01*
X25296Y110369D01*
X25120Y110486D01*
X24927Y110585D01*
X24718Y110666D01*
X24491Y110729D01*
X24248Y110774D01*
X23988Y110801D01*
X23711Y110810D01*
X22574Y110810D01*
X22574Y106182D01*
X23892Y106182D01*
G37*
%LPD*%
G36*
X12411Y105540D02*
X11581Y105540D01*
X9168Y111452D01*
X10011Y111452D01*
X11648Y107290D01*
X12000Y106245D01*
X12353Y107290D01*
X13981Y111452D01*
X14824Y111452D01*
X12411Y105540D01*
G37*
D10*
X233750Y88970D02*
X229200Y88970D01*
D11*
X221250Y107720D02*
X221252Y107783D01*
X221258Y107845D01*
X221268Y107907D01*
X221281Y107969D01*
X221299Y108029D01*
X221320Y108088D01*
X221345Y108146D01*
X221374Y108202D01*
X221406Y108256D01*
X221441Y108308D01*
X221479Y108357D01*
X221521Y108405D01*
X221565Y108449D01*
X221613Y108491D01*
X221662Y108529D01*
X221714Y108564D01*
X221768Y108596D01*
X221824Y108625D01*
X221882Y108650D01*
X221941Y108671D01*
X222001Y108689D01*
X222063Y108702D01*
X222125Y108712D01*
X222187Y108718D01*
X222250Y108720D01*
X222313Y108718D01*
X222375Y108712D01*
X222437Y108702D01*
X222499Y108689D01*
X222559Y108671D01*
X222618Y108650D01*
X222676Y108625D01*
X222732Y108596D01*
X222786Y108564D01*
X222838Y108529D01*
X222887Y108491D01*
X222935Y108449D01*
X222979Y108405D01*
X223021Y108357D01*
X223059Y108308D01*
X223094Y108256D01*
X223126Y108202D01*
X223155Y108146D01*
X223180Y108088D01*
X223201Y108029D01*
X223219Y107969D01*
X223232Y107907D01*
X223242Y107845D01*
X223248Y107783D01*
X223250Y107720D01*
X223248Y107657D01*
X223242Y107595D01*
X223232Y107533D01*
X223219Y107471D01*
X223201Y107411D01*
X223180Y107352D01*
X223155Y107294D01*
X223126Y107238D01*
X223094Y107184D01*
X223059Y107132D01*
X223021Y107083D01*
X222979Y107035D01*
X222935Y106991D01*
X222887Y106949D01*
X222838Y106911D01*
X222786Y106876D01*
X222732Y106844D01*
X222676Y106815D01*
X222618Y106790D01*
X222559Y106769D01*
X222499Y106751D01*
X222437Y106738D01*
X222375Y106728D01*
X222313Y106722D01*
X222250Y106720D01*
X222187Y106722D01*
X222125Y106728D01*
X222063Y106738D01*
X222001Y106751D01*
X221941Y106769D01*
X221882Y106790D01*
X221824Y106815D01*
X221768Y106844D01*
X221714Y106876D01*
X221662Y106911D01*
X221613Y106949D01*
X221565Y106991D01*
X221521Y107035D01*
X221479Y107083D01*
X221441Y107132D01*
X221406Y107184D01*
X221374Y107238D01*
X221345Y107294D01*
X221320Y107352D01*
X221299Y107411D01*
X221281Y107471D01*
X221268Y107533D01*
X221258Y107595D01*
X221252Y107657D01*
X221250Y107720D01*
D10*
X233750Y88970D02*
X233750Y65970D01*
X229200Y65970D01*
X215300Y65970D02*
X210750Y65970D01*
X210750Y88970D01*
X215300Y88970D01*
D11*
X256990Y92470D02*
X256990Y53470D01*
X281490Y53470D01*
X281490Y92470D01*
D12*
X108538Y120360D02*
X108540Y120396D01*
X108546Y120431D01*
X108555Y120466D01*
X108569Y120499D01*
X108586Y120531D01*
X108606Y120561D01*
X108629Y120588D01*
X108655Y120613D01*
X108684Y120635D01*
X108714Y120653D01*
X108747Y120668D01*
X108781Y120680D01*
X108816Y120688D01*
X108852Y120692D01*
X108888Y120692D01*
X108924Y120688D01*
X108959Y120680D01*
X108993Y120668D01*
X109026Y120653D01*
X109056Y120635D01*
X109085Y120613D01*
X109111Y120588D01*
X109134Y120561D01*
X109154Y120531D01*
X109171Y120499D01*
X109185Y120466D01*
X109194Y120431D01*
X109200Y120396D01*
X109202Y120360D01*
X109200Y120324D01*
X109194Y120289D01*
X109185Y120254D01*
X109171Y120221D01*
X109154Y120189D01*
X109134Y120159D01*
X109111Y120132D01*
X109085Y120107D01*
X109056Y120085D01*
X109026Y120067D01*
X108993Y120052D01*
X108959Y120040D01*
X108924Y120032D01*
X108888Y120028D01*
X108852Y120028D01*
X108816Y120032D01*
X108781Y120040D01*
X108747Y120052D01*
X108714Y120067D01*
X108684Y120085D01*
X108655Y120107D01*
X108629Y120132D01*
X108606Y120159D01*
X108586Y120189D01*
X108569Y120221D01*
X108555Y120254D01*
X108546Y120289D01*
X108540Y120324D01*
X108538Y120360D01*
D11*
X116840Y27130D02*
X116840Y21130D01*
M02*
